<svg xmlns="http://www.w3.org/2000/svg" viewBox="0 0 512 512" width="100%" height="100%">
  <defs>
    <linearGradient id="logo-grad" x1="0%" y1="0%" x2="100%" y2="100%">
      <stop offset="0%" stop-color="#4F46E5" />
      <stop offset="50%" stop-color="#9333EA" />
      <stop offset="100%" stop-color="#EC4899" />
    </linearGradient>
    <filter id="shadow" x="-20%" y="-20%" width="140%" height="140%">
      <feDropShadow dx="0" dy="12" stdDeviation="16" flood-color="#9333EA" flood-opacity="0.3"/>
    </filter>
  </defs>

  <g transform="translate(-4, 0)">
    <path d="M 368 104 
             L 192 104 
             A 80 80 0 0 0 112 184 
             L 112 328 
             A 80 80 0 0 0 192 408 
             L 368 408 
             A 40 40 0 0 0 368 328 
             L 192 328 
             L 192 296 
             L 304 296 
             A 40 40 0 0 0 304 216 
             L 192 216 
             L 192 184 
             L 368 184 
             A 40 40 0 0 0 368 104 Z" 
          fill="url(#logo-grad)" 
          filter="url(#shadow)" />
  </g>
</svg>